<svg width="1237" height="334" viewBox="0 0 1237 334" fill="none" xmlns="http://www.w3.org/2000/svg">
<path d="M130.286 214.938C130.286 183.704 164.098 164.182 191.148 179.8L283.501 233.12C294.134 239.258 289.778 255.512 277.501 255.512C275.395 255.512 273.325 254.957 271.501 253.904L178.285 200.086C167.619 193.928 154.286 201.626 154.285 213.942V321.579C154.285 323.685 153.731 325.755 152.678 327.579C146.539 338.211 130.285 333.856 130.285 321.579L130.286 214.938ZM1.67798 96.0202C-4.46063 85.3878 7.43815 73.489 18.0706 79.6276L110.424 132.948C137.474 148.565 137.474 187.608 110.424 203.225L18.0706 256.546C7.43824 262.684 -4.46028 250.786 1.67798 240.154C2.73121 238.33 4.24631 236.815 6.07056 235.761L99.2864 181.943C109.953 175.785 109.953 160.389 99.2864 154.23L6.07056 100.412C4.2464 99.3586 2.7312 97.8444 1.67798 96.0202ZM131.285 12.0202C131.285 -0.257029 147.539 -4.61218 153.678 6.02023C154.731 7.84442 155.285 9.91384 155.285 12.0202V119.657C155.286 131.973 168.619 139.671 179.285 133.513L272.501 79.6941C274.325 78.6409 276.395 78.0867 278.501 78.0866C290.778 78.0866 295.134 94.3406 284.501 100.479L192.148 153.8C165.098 169.417 131.286 149.895 131.286 118.661L131.285 12.0202Z" fill="#106BFF"/>
<path d="M433.625 260.848C419.972 260.848 406.916 258.8 394.457 254.704C381.999 250.437 372.185 244.976 365.017 238.32L374.489 218.352C381.316 224.325 390.02 229.274 400.601 233.2C411.183 237.125 422.191 239.088 433.625 239.088C444.036 239.088 452.484 237.893 458.969 235.504C465.455 233.114 470.233 229.872 473.305 225.776C476.377 221.509 477.913 216.73 477.913 211.44C477.913 205.296 475.865 200.346 471.769 196.592C467.844 192.837 462.639 189.85 456.153 187.632C449.839 185.242 442.841 183.194 435.161 181.488C427.481 179.781 419.716 177.818 411.865 175.6C404.185 173.21 397.103 170.224 390.617 166.64C384.303 163.056 379.183 158.277 375.257 152.304C371.332 146.16 369.369 138.309 369.369 128.752C369.369 119.536 371.759 111.088 376.537 103.408C381.487 95.5569 388.996 89.3276 399.065 84.7196C409.305 79.9409 422.276 77.5516 437.977 77.5516C448.388 77.5516 458.713 78.9169 468.953 81.6476C479.193 84.3782 488.068 88.3035 495.577 93.4236L487.129 113.904C479.449 108.784 471.343 105.114 462.809 102.896C454.276 100.506 445.999 99.3116 437.977 99.3116C427.908 99.3116 419.631 100.592 413.145 103.152C406.66 105.712 401.881 109.125 398.809 113.392C395.908 117.658 394.457 122.437 394.457 127.728C394.457 134.042 396.42 139.077 400.345 142.832C404.441 146.586 409.647 149.573 415.961 151.792C422.447 154.01 429.529 156.058 437.209 157.936C444.889 159.642 452.569 161.605 460.249 163.824C468.1 166.042 475.183 168.944 481.497 172.528C487.983 176.112 493.188 180.89 497.113 186.864C501.039 192.837 503.001 200.517 503.001 209.904C503.001 218.949 500.527 227.397 495.577 235.248C490.628 242.928 482.948 249.157 472.537 253.936C462.297 258.544 449.327 260.848 433.625 260.848ZM597.233 260.336C582.727 260.336 569.927 257.349 558.833 251.376C547.911 245.402 539.377 237.21 533.233 226.8C527.26 216.389 524.273 204.442 524.273 190.96C524.273 177.477 527.175 165.53 532.977 155.12C538.951 144.709 547.057 136.602 557.297 130.8C567.708 124.826 579.399 121.84 592.369 121.84C605.511 121.84 617.116 124.741 627.185 130.544C637.255 136.346 645.105 144.538 650.737 155.12C656.54 165.53 659.441 177.733 659.441 191.728C659.441 192.752 659.356 193.946 659.185 195.312C659.185 196.677 659.1 197.957 658.929 199.152H543.473V181.488H646.129L636.145 187.632C636.316 178.928 634.524 171.162 630.769 164.336C627.015 157.509 621.809 152.218 615.153 148.464C608.668 144.538 601.073 142.576 592.369 142.576C583.836 142.576 576.241 144.538 569.585 148.464C562.929 152.218 557.724 157.594 553.969 164.592C550.215 171.418 548.337 179.269 548.337 188.144V192.24C548.337 201.285 550.385 209.392 554.481 216.56C558.748 223.557 564.636 229.018 572.145 232.944C579.655 236.869 588.273 238.832 598.001 238.832C606.023 238.832 613.276 237.466 619.761 234.736C626.417 232.005 632.22 227.909 637.169 222.448L650.737 238.32C644.593 245.488 636.913 250.949 627.697 254.704C618.652 258.458 608.497 260.336 597.233 260.336ZM752.703 260.336C738.879 260.336 726.506 257.349 715.583 251.376C704.831 245.402 696.383 237.21 690.239 226.8C684.095 216.389 681.023 204.442 681.023 190.96C681.023 177.477 684.095 165.53 690.239 155.12C696.383 144.709 704.831 136.602 715.583 130.8C726.506 124.826 738.879 121.84 752.703 121.84C764.991 121.84 775.914 124.314 785.471 129.264C795.199 134.042 802.709 141.21 807.999 150.768L789.311 162.8C784.874 156.144 779.413 151.28 772.927 148.208C766.613 144.965 759.786 143.344 752.447 143.344C743.573 143.344 735.637 145.306 728.639 149.232C721.642 153.157 716.095 158.704 711.999 165.872C707.903 172.869 705.855 181.232 705.855 190.96C705.855 200.688 707.903 209.136 711.999 216.304C716.095 223.472 721.642 229.018 728.639 232.944C735.637 236.869 743.573 238.832 752.447 238.832C759.786 238.832 766.613 237.296 772.927 234.224C779.413 230.981 784.874 226.032 789.311 219.376L807.999 231.152C802.709 240.538 795.199 247.792 785.471 252.912C775.914 257.861 764.991 260.336 752.703 260.336ZM896.905 260.336C885.3 260.336 875.06 258.202 866.185 253.936C857.481 249.669 850.655 243.184 845.705 234.48C840.927 225.605 838.537 214.512 838.537 201.2V123.12H863.113V198.384C863.113 211.696 866.271 221.68 872.585 228.336C879.071 234.992 888.116 238.32 899.721 238.32C908.255 238.32 915.679 236.613 921.993 233.2C928.308 229.616 933.172 224.496 936.585 217.84C939.999 211.013 941.705 202.821 941.705 193.264V123.12H966.281V258.8H942.985V222.192L946.825 231.92C942.388 240.965 935.732 247.962 926.857 252.912C917.983 257.861 907.999 260.336 896.905 260.336ZM1013.07 258.8V123.12H1036.62V159.984L1034.32 150.768C1038.07 141.381 1044.38 134.213 1053.26 129.264C1062.13 124.314 1073.06 121.84 1086.03 121.84V145.648C1085 145.477 1083.98 145.392 1082.96 145.392C1082.1 145.392 1081.25 145.392 1080.4 145.392C1067.25 145.392 1056.84 149.317 1049.16 157.168C1041.48 165.018 1037.64 176.368 1037.64 191.216V258.8H1013.07ZM1190.54 258.8V230.128L1189.26 224.752V175.856C1189.26 165.445 1186.19 157.424 1180.05 151.792C1174.07 145.989 1165.03 143.088 1152.91 143.088C1144.89 143.088 1137.04 144.453 1129.36 147.184C1121.68 149.744 1115.19 153.242 1109.9 157.68L1099.66 139.248C1106.66 133.616 1115.02 129.349 1124.75 126.448C1134.65 123.376 1144.97 121.84 1155.73 121.84C1174.33 121.84 1188.66 126.362 1198.73 135.408C1208.8 144.453 1213.84 158.277 1213.84 176.88V258.8H1190.54ZM1146 260.336C1135.93 260.336 1127.05 258.629 1119.37 255.216C1111.86 251.802 1106.06 247.109 1101.97 241.136C1097.87 234.992 1095.82 228.08 1095.82 220.4C1095.82 213.061 1097.53 206.405 1100.94 200.432C1104.53 194.458 1110.24 189.68 1118.09 186.096C1126.11 182.512 1136.87 180.72 1150.35 180.72H1193.36V198.384H1151.37C1139.09 198.384 1130.81 200.432 1126.54 204.528C1122.27 208.624 1120.14 213.573 1120.14 219.376C1120.14 226.032 1122.79 231.408 1128.08 235.504C1133.37 239.429 1140.71 241.392 1150.09 241.392C1159.31 241.392 1167.33 239.344 1174.16 235.248C1181.15 231.152 1186.19 225.178 1189.26 217.328L1194.13 234.224C1190.88 242.245 1185.17 248.645 1176.97 253.424C1168.78 258.032 1158.46 260.336 1146 260.336Z" fill="black"/>
</svg>
